<svg xmlns="http://www.w3.org/2000/svg" viewBox="0 0 400 350"><title>Ilustração conceitual de produto — não representa fabricante ou modelo</title><ellipse cx="203" cy="299" rx="115" ry="12" fill="#dce7e4" opacity=".7"/><path d="m107 267 144-199" stroke="#b3cace" stroke-width="9"/><path d="m234 91 17-23" stroke="#167c8b" stroke-width="12"/><path d="m111 230 27 20-28 41-28-20Z" fill="#13798d"/><path d="m77 253 47 32" stroke="#0c5166" stroke-width="12"/><path d="m173 266 117-168" stroke="#c6d7d7" stroke-width="8"/><path d="m272 126c-20-12-8-47 9-55s40 7 40 25-30 44-49 30" fill="#8bcfcf" stroke="#107a8b" stroke-width="7"/><path d="m280 78 32 26m-37-11 27 23m-5-38-16 39m24-31-15 35" stroke="#d9eeed" stroke-width="2"/></svg>